<svg width="19" height="22" viewBox="0 0 19 22" fill="none" xmlns="http://www.w3.org/2000/svg">
<g clip-path="url(#clip0_139_889)">
<path d="M17.8872 7.4998C17.7572 7.5988 15.4615 8.8682 15.4615 11.6908C15.4615 14.9556 18.3827 16.1106 18.4701 16.1392C18.4566 16.2096 18.006 17.721 16.9299 19.261C15.9704 20.6162 14.9682 21.9692 13.4437 21.9692C11.9193 21.9692 11.5269 21.1002 9.76702 21.1002C8.05196 21.1002 7.44217 21.9978 6.0477 21.9978C4.65324 21.9978 3.68025 20.7438 2.56154 19.2038C1.26572 17.3954 0.21875 14.586 0.21875 11.9196C0.21875 7.6428 3.05252 5.3746 5.84145 5.3746C7.32335 5.3746 8.55864 6.3294 9.48903 6.3294C10.3746 6.3294 11.7556 5.3174 13.4415 5.3174C14.0804 5.3174 16.3762 5.3746 17.8872 7.4998ZM12.6411 3.5068C13.3384 2.695 13.8316 1.5686 13.8316 0.4422C13.8316 0.286 13.8181 0.1276 13.789 0C12.6546 0.0418 11.305 0.7414 10.4912 1.6676C9.85221 2.3804 9.25587 3.5068 9.25587 4.6486C9.25587 4.8202 9.28501 4.9918 9.29846 5.0468C9.3702 5.06 9.48678 5.0754 9.60336 5.0754C10.6212 5.0754 11.9013 4.4066 12.6411 3.5068Z" fill="#1A1D1F"/>
</g>
<defs>
<clipPath id="clip0_139_889">
<rect width="18.2491" height="22" fill="white" transform="translate(0.21875)"/>
</clipPath>
</defs>
</svg>
