<svg width="23" height="22" viewBox="0 0 23 22" fill="none" xmlns="http://www.w3.org/2000/svg">
<g clip-path="url(#clip0_139_879)">
<path d="M22.2091 11.2475C22.2091 10.5233 22.1437 9.83579 22.0316 9.16663H11.476V13.3008H17.5198C17.2489 14.6575 16.4548 15.8033 15.2778 16.5825V19.3325H18.8836C20.9947 17.4166 22.2091 14.5933 22.2091 11.2475Z" fill="#4285F4"/>
<path d="M11.4761 22C14.5026 22 17.0341 21.01 18.8837 19.3325L15.278 16.5825C14.2691 17.2425 12.9893 17.6458 11.4761 17.6458C8.55224 17.6458 6.07681 15.7116 5.18938 13.0991H1.47156V15.9316C3.31179 19.525 7.095 22 11.4761 22Z" fill="#34A853"/>
<path d="M5.18933 13.0992C4.9558 12.4392 4.83436 11.7334 4.83436 11C4.83436 10.2667 4.96514 9.56086 5.18933 8.90086V6.06836H1.4715C0.705518 7.55336 0.266479 9.22169 0.266479 11C0.266479 12.7784 0.705518 14.4467 1.4715 15.9317L5.18933 13.0992Z" fill="#FBBC05"/>
<path d="M11.4761 4.35417C13.1295 4.35417 14.6054 4.91334 15.773 6.00417L18.9678 2.86917C17.0341 1.09083 14.5026 0 11.4761 0C7.095 0 3.31179 2.475 1.47156 6.06834L5.18938 8.90084C6.0768 6.28834 8.55224 4.35417 11.4761 4.35417Z" fill="#EA4335"/>
</g>
<defs>
<clipPath id="clip0_139_879">
<rect width="22.419" height="22" fill="white" transform="translate(0.0283203)"/>
</clipPath>
</defs>
</svg>
