<svg width="185" height="192" viewBox="0 0 185 192" fill="none" xmlns="http://www.w3.org/2000/svg">
<g filter="url(#filter0_d_139_905)">
<path fill-rule="evenodd" clip-rule="evenodd" d="M105 43.3494C97.2649 38.8835 87.735 38.8835 79.9999 43.3494L53.4714 58.6656C45.7364 63.1314 40.9714 71.3846 40.9714 80.3162V110.949C40.9714 119.88 45.7364 128.134 53.4714 132.599L79.9999 147.916C87.735 152.381 97.2649 152.381 105 147.916L131.528 132.599C139.263 128.134 144.028 119.88 144.028 110.949V80.3162C144.028 71.3846 139.263 63.1314 131.528 58.6656L105 43.3494ZM92.7812 67.2409C89.6762 67.2409 87.1591 69.758 87.1591 72.8629V118.402C87.1591 121.506 89.6762 124.024 92.7812 124.024C95.8861 124.024 98.4032 121.506 98.4032 118.402V72.8629C98.4032 69.758 95.8861 67.2409 92.7812 67.2409ZM71.0424 81.4836C67.9374 81.4836 65.4204 84.0006 65.4204 87.1056V109.594C65.4204 112.699 67.9374 115.216 71.0424 115.216C74.1474 115.216 76.6645 112.699 76.6645 109.594V87.1056C76.6645 84.0006 74.1474 81.4836 71.0424 81.4836ZM108.897 87.1056C108.897 84.0006 111.414 81.4836 114.519 81.4836C117.624 81.4836 120.142 84.0006 120.142 87.1056V109.594C120.142 112.699 117.624 115.216 114.519 115.216C111.414 115.216 108.897 112.699 108.897 109.594V87.1056Z" fill="white"/>
</g>
<defs>
<filter id="filter0_d_139_905" x="0.971436" y="0" width="183.057" height="191.265" filterUnits="userSpaceOnUse" color-interpolation-filters="sRGB">
<feFlood flood-opacity="0" result="BackgroundImageFix"/>
<feColorMatrix in="SourceAlpha" type="matrix" values="0 0 0 0 0 0 0 0 0 0 0 0 0 0 0 0 0 0 127 0" result="hardAlpha"/>
<feOffset/>
<feGaussianBlur stdDeviation="20"/>
<feComposite in2="hardAlpha" operator="out"/>
<feColorMatrix type="matrix" values="0 0 0 0 0 0 0 0 0 0 0 0 0 0 0 0 0 0 0.25 0"/>
<feBlend mode="normal" in2="BackgroundImageFix" result="effect1_dropShadow_139_905"/>
<feBlend mode="normal" in="SourceGraphic" in2="effect1_dropShadow_139_905" result="shape"/>
</filter>
</defs>
</svg>
